<svg viewBox="0 0 100 100" fill="none" xmlns="http://www.w3.org/2000/svg">
<path d="M98.3307 75.306H95.5102V24.583C95.5214 21.9618 94.4866 19.4443 92.6363 17.5884C90.7852 15.7317 88.2709 14.6898 85.6497 14.6938H73.6735V8.37684C73.6775 7.71278 73.2765 7.11408 72.6618 6.86376C72.0472 6.61345 71.3425 6.76172 70.8809 7.23924L67.6379 10.5787L64.3933 7.23924C64.0856 6.92196 63.6631 6.74339 63.2223 6.74339C62.7814 6.74339 62.3589 6.92196 62.0512 7.23924L58.8114 10.5779L55.5732 7.23526C55.2663 6.91718 54.8438 6.73621 54.4021 6.73462C53.9597 6.73621 53.5372 6.91638 53.2302 7.23446L49.9904 10.5755L46.7514 7.23845C46.4437 6.92196 46.0212 6.74259 45.5796 6.74259C45.1379 6.74259 44.7154 6.92196 44.4077 7.23845L41.1695 10.5763L37.9305 7.23924C37.6228 6.92276 37.2003 6.74339 36.7586 6.74339C36.317 6.74339 35.8945 6.92276 35.5867 7.23924L32.3509 10.5763L29.1167 7.24004C28.6559 6.76252 27.9512 6.61345 27.3366 6.86376C26.7227 7.11408 26.3225 7.71278 26.3265 8.37684V14.6938H14.3503C11.7291 14.6898 9.21476 15.7317 7.36368 17.5884C5.51339 19.4443 4.47864 21.9618 4.4898 24.583V75.306H1.66932C0.758929 75.306 0.0167411 76.0355 0 76.9459V83.3266C0.0231186 88.8169 4.47624 93.2573 9.96732 93.2652H90.0327C95.5238 93.2573 99.9769 88.8169 100 83.3266V76.9459C99.9833 76.0355 99.2411 75.306 98.3307 75.306ZM85.6497 17.9591C87.4051 17.9543 89.0896 18.6519 90.3284 19.8963C91.5673 21.1399 92.2569 22.8276 92.2449 24.583V75.306H87.3469V25.0613C87.3557 24.6372 87.1915 24.2274 86.8917 23.9277C86.592 23.6272 86.183 23.4613 85.7589 23.4693H73.6735V17.9591H85.6497ZM26.3265 59.1836H21.8216C20.92 59.1836 20.1889 59.9146 20.1889 60.8162C20.1889 61.7179 20.92 62.4489 21.8216 62.4489H78.1784C79.08 62.4489 79.8111 61.7179 79.8111 60.8162C79.8111 59.9146 79.08 59.1836 78.1784 59.1836H73.6735V26.7346H84.0816V75.306H62.1732C61.7164 75.3076 61.2811 75.4998 60.9726 75.837L59.2881 77.6562C58.0238 79.021 56.2476 79.7966 54.3878 79.7958H45.6122C43.7516 79.7974 41.9754 79.0218 40.7111 77.657L39.0274 75.8314C38.7181 75.4958 38.2828 75.306 37.8269 75.306H15.9184V26.7346H26.3265V59.1836ZM29.5918 12.4067L31.1854 14.0258C31.4955 14.3343 31.9173 14.5017 32.3541 14.4897H32.3525C32.7894 14.5017 33.2127 14.3343 33.5236 14.0266L36.7594 10.7054L39.9976 14.0505C40.3037 14.3693 40.7262 14.5495 41.1679 14.5503C41.6095 14.5519 42.0328 14.3733 42.3414 14.0568L45.5796 10.7198L48.8186 14.0584C49.1255 14.3749 49.5488 14.5543 49.9896 14.5543C50.4313 14.5543 50.8538 14.3757 51.1615 14.0592L54.4013 10.7214L57.6387 14.0273C57.9496 14.3351 58.3729 14.5017 58.8106 14.4897C59.2475 14.5017 59.6708 14.3343 59.9817 14.0266L63.2247 10.7038L66.4692 14.0505C66.7762 14.3678 67.1987 14.5479 67.6403 14.5495C68.0788 14.5503 68.4989 14.3725 68.8034 14.0568L70.4082 12.4003V59.1836H29.5918V12.4067ZM7.7551 24.583C7.74314 22.8276 8.43272 21.1399 9.67156 19.8963C10.9104 18.6519 12.5949 17.9543 14.3503 17.9591H26.3265V23.4693H14.2411C13.817 23.4613 13.408 23.6272 13.1083 23.9277C12.8085 24.2274 12.6443 24.6372 12.6531 25.0613V75.306H7.7551V24.583ZM96.7347 83.3266C96.714 87.0144 93.7213 89.9943 90.0327 89.9999H9.96732C6.2787 89.9943 3.28603 87.0144 3.26531 83.3266V78.5714H37.1118L38.3107 79.8668C40.1937 81.902 42.8396 83.0596 45.6122 83.0611H54.3878C57.1604 83.0603 59.8071 81.902 61.6893 79.8668L62.8882 78.5714H96.7347V83.3266Z" fill="black"/>
<path d="M42.552 47.9592H57.4491C58.3507 47.9592 59.0818 47.2281 59.0818 46.3265C59.0818 45.4249 58.3507 44.6938 57.4491 44.6938H42.5536C41.6511 44.6938 40.9209 45.4249 40.9209 46.3265C40.9209 47.2281 41.6511 47.9592 42.5536 47.9592H42.552Z" fill="black"/>
<path d="M64.5421 51.2246H35.4588C34.5572 51.2246 33.8262 51.9556 33.8262 52.8573C33.8262 53.7589 34.5572 54.4899 35.4588 54.4899H64.5421C65.4437 54.4899 66.1747 53.7589 66.1747 52.8573C66.1747 51.9556 65.4437 51.2246 64.5421 51.2246Z" fill="black"/>
<path d="M50.0048 35.7694C49.8701 35.7335 49.7314 35.7152 49.5919 35.7144C49.5568 35.7144 49.5233 35.7176 49.4899 35.72C48.204 35.4728 47.2737 34.3488 47.2713 33.0398C47.2713 32.1382 46.5402 31.4071 45.6386 31.4071C44.737 31.4071 44.006 32.1382 44.006 33.0398C44.0091 35.5621 45.5884 37.8142 47.9592 38.6768V39.796C47.9592 40.6976 48.6903 41.4287 49.5919 41.4287C50.4935 41.4287 51.2246 40.6976 51.2246 39.796V38.9087C54.2324 38.2805 56.2788 35.4808 55.9631 32.4244C55.6474 29.3679 53.0725 27.0449 50.0001 27.0441C48.4926 27.0441 47.2697 25.822 47.2697 24.3145C47.2697 22.807 48.4918 21.5841 50.0001 21.5841C51.5076 21.5841 52.7297 22.807 52.7297 24.3145C52.7297 25.2161 53.4607 25.9472 54.3623 25.9472C55.2639 25.9472 55.995 25.2161 55.995 24.3145C55.991 21.4765 54.002 19.0291 51.2246 18.4456V17.5511C51.2246 16.6495 50.4935 15.9185 49.5919 15.9185C48.6903 15.9185 47.9592 16.6495 47.9592 17.5511V18.6775C45.2209 19.6677 43.5906 22.4826 44.0936 25.3509C44.5967 28.2192 47.0879 30.311 50.0001 30.3102C51.4988 30.3214 52.7073 31.5395 52.7089 33.0374C52.7097 34.5361 51.5028 35.755 50.0048 35.7694Z" fill="black"/>
</svg>
