<svg viewBox="0 0 100 100" fill="none" xmlns="http://www.w3.org/2000/svg">
<g clip-path="url(#clip0)">
<path d="M58.926 48.9503C58.926 48.0192 58.1718 47.2658 57.2416 47.2658H46.1999V31.4374C46.1999 30.5071 45.4457 29.7529 44.5155 29.7529C43.5853 29.7529 42.8311 30.5071 42.8311 31.4374V48.9001C42.8311 49.8303 43.508 50.6347 44.4382 50.6347H57.2416C58.1718 50.6347 58.926 49.8805 58.926 48.9503Z" fill="black"/>
<path d="M67.778 74.8022C69.7059 73.483 72.1182 71.8405 72.1182 69.012C72.1182 66.1128 69.5422 64.5485 67.1126 64.5485C64.7546 64.5485 62.2518 66.001 62.2518 68.6962C62.2518 69.9143 62.7699 70.5073 63.8334 70.5073C65.0227 70.5073 65.665 69.8345 65.665 69.2012C65.665 67.919 66.5895 67.7273 67.1389 67.7273C68.2419 67.7273 68.6342 68.4766 68.6342 69.1173C68.6342 70.3305 67.1661 71.4038 65.6182 72.5396C63.8375 73.8474 61.9902 75.1987 61.9902 76.9925V79.0347C61.9902 79.7157 62.9114 80.1121 63.5381 80.1121H71.0342C71.6173 80.1121 72.1289 79.4476 72.1289 78.6169C72.1289 77.7961 71.6272 77.1644 71.0342 77.1644H65.5713V76.9925C65.5713 76.2942 66.6084 75.6025 67.778 74.8022Z" fill="black"/>
<path d="M84.3638 73.5849H83.4682V72.2961C83.4682 71.4876 82.5906 71.2014 81.7837 71.2014C80.9777 71.2014 80.0993 71.4876 80.0993 72.2961V73.5849H78.5333L82.1867 66.2962C82.2534 66.1654 82.2928 66.0223 82.3002 65.8751C82.3002 65.0395 81.1685 64.5377 80.5525 64.5377C79.9299 64.5262 79.3583 64.8807 79.0909 65.4433L74.2268 74.9807C74.1101 75.1986 74.0484 75.4404 74.0459 75.6872C74.0459 76.4299 74.5279 76.9538 75.2459 76.9538H80.0993V79.0347C80.0993 79.8012 80.9415 80.1508 81.7837 80.1508C82.6259 80.1508 83.4682 79.8012 83.4682 79.0347V76.9538H84.3638C84.9272 76.9538 85.4799 76.0869 85.4799 75.2694C85.4799 74.488 85.132 73.5849 84.3638 73.5849Z" fill="black"/>
<path d="M91.7082 54.1245C92.1721 51.4761 92.4056 48.7924 92.4056 46.1037C92.4056 27.4566 81.1731 10.6453 63.9448 3.50952C46.7173 -3.62625 26.8875 0.318329 13.7016 13.5034C0.515686 26.6893 -3.42889 46.5191 3.70688 63.7474C10.8427 80.9758 27.654 92.2083 46.3019 92.2083C48.9906 92.2083 51.6735 91.9747 54.3219 91.5108C60.9074 98.6285 70.8593 101.573 80.2577 99.1853C89.6561 96.7969 96.9942 89.4579 99.3827 80.0603C101.771 70.662 98.8259 60.71 91.7082 54.1245ZM46.3019 88.8386C22.7373 88.8386 3.56706 69.6676 3.56706 46.1037C3.56706 22.5399 22.7373 3.36888 46.3019 3.36888C69.8658 3.36888 89.0368 22.5399 89.0368 46.1037C89.036 47.974 88.9134 49.8419 88.6708 51.6966C86.4526 50.1733 84.0148 48.9988 81.4413 48.2134C81.4832 47.511 81.5062 46.8061 81.5062 46.1046C81.5062 26.6926 65.7139 10.9003 46.3019 10.9003C26.8907 10.9003 11.0976 26.6926 11.0976 46.1046C11.0976 65.5166 26.8907 81.3089 46.3019 81.3089C47.0035 81.3089 47.7092 81.2858 48.4108 81.2439C49.1962 83.8174 50.3715 86.256 51.8947 88.4734C50.0401 88.7161 48.1714 88.8378 46.3019 88.8386ZM47.2642 73.5357C47.265 75.0013 47.386 76.4645 47.6278 77.9104C47.1861 77.9285 46.7436 77.9392 46.3011 77.9392C28.7471 77.9392 14.4656 63.6578 14.4656 46.1037C14.4656 28.5497 28.7471 14.2683 46.3011 14.2683C63.856 14.2683 78.1374 28.5497 78.1374 46.1037C78.1374 46.5454 78.1259 46.9879 78.107 47.4304C70.43 46.1449 62.5754 48.3039 56.6338 53.3333C50.6923 58.3627 47.265 65.7518 47.2642 73.5357ZM73.7339 96.6365C60.9757 96.6365 50.6331 86.2947 50.6331 73.5365C50.6331 60.7783 60.9757 50.4357 73.7339 50.4357C86.4921 50.4357 96.8347 60.7783 96.8347 73.5357C96.8199 86.2881 86.4863 96.6225 73.7339 96.6365Z" fill="black"/>
</g>
<defs>
<clipPath id="clip0">
<rect width="100" height="100" fill="white"/>
</clipPath>
</defs>
</svg>
