<svg width="100" height="100" viewBox="0 0 100 100" fill="none" xmlns="http://www.w3.org/2000/svg">
<path d="M51.3053 54.5756C51.1202 54.5356 50.9304 54.5283 50.743 54.5564C48.8648 54.3377 47.448 52.7487 47.4448 50.8585C47.4448 49.9527 46.7104 49.2182 45.8045 49.2182C44.8987 49.2182 44.1642 49.9527 44.1642 50.8585C44.169 54.015 46.2803 56.7797 49.3238 57.6151V59.2554C49.3238 60.1612 50.0582 60.8957 50.9641 60.8957C51.8699 60.8957 52.6044 60.1612 52.6044 59.2554V57.7144C56.1172 56.9792 58.5048 53.7074 58.1355 50.1377C57.7655 46.568 54.758 43.8553 51.1691 43.8545C49.1123 43.8545 47.4448 42.1869 47.4448 40.1302C47.4448 38.0734 49.1123 36.4059 51.1691 36.4059C53.2259 36.4059 54.8934 38.0734 54.8934 40.1302C54.8934 41.036 55.6278 41.7705 56.5337 41.7705C57.4395 41.7705 58.174 41.036 58.174 40.1302C58.1692 36.8159 55.8473 33.9575 52.6044 33.2735V31.7805C52.6044 30.8747 51.8699 30.1403 50.9641 30.1403C50.0582 30.1403 49.3238 30.8747 49.3238 31.7805V33.3736C45.9391 34.2978 43.7606 37.584 44.2267 41.0616C44.6928 44.5392 47.6603 47.135 51.1691 47.1342C53.1986 47.1342 54.8541 48.7593 54.891 50.788C54.9286 52.8168 53.3332 54.5019 51.3053 54.5756Z" fill="black"/>
<path d="M27.3838 45.6205C27.3838 58.7572 38.0328 69.4063 51.1696 69.4063C64.3063 69.4063 74.9553 58.7572 74.9553 45.6205C74.9553 32.4838 64.3063 21.8347 51.1696 21.8347C38.0393 21.8491 27.399 32.4902 27.3838 45.6205ZM51.1696 25.1153C62.4946 25.1153 71.6748 34.2955 71.6748 45.6205C71.6748 56.9455 62.4946 66.1257 51.1696 66.1257C39.8445 66.1257 30.6644 56.9455 30.6644 45.6205C30.6772 34.3011 39.8501 25.1281 51.1696 25.1153Z" fill="black"/>
<path d="M83.0414 73.4502L70.1922 79.5211C68.4181 76.2213 65.015 74.1213 61.2699 74.0156L49.4083 73.6896C47.5301 73.636 45.6872 73.1602 44.0172 72.2976L42.8103 71.6721C36.6303 68.4508 29.2643 68.4588 23.0907 71.6929L23.166 68.9586C23.1909 68.0527 22.4772 67.2983 21.5714 67.2734L8.56442 66.9154C7.65858 66.8906 6.90491 67.6042 6.88008 68.5101L6.09438 97.0533C6.06955 97.9592 6.78317 98.7136 7.68901 98.7385L20.696 99.0965H20.7408C21.6299 99.0965 22.3571 98.3893 22.3811 97.5011L22.4188 96.1355L25.7979 94.3262C27.1242 93.6126 28.6748 93.4428 30.1236 93.8528L50.3021 99.5162C50.3373 99.5266 50.3726 99.5346 50.4086 99.5426C51.8671 99.8478 53.3536 100.001 54.8433 99.9999C57.9989 100.002 61.1177 99.3215 63.9858 98.0048C64.0563 97.9728 64.1244 97.9352 64.1893 97.8927L93.4462 78.9685C94.175 78.4968 94.4105 77.5397 93.9836 76.7836C91.8115 72.9296 86.9939 71.4615 83.0414 73.4502ZM9.41901 95.5044L10.1142 70.2401L19.8414 70.5076L19.1462 95.7727L9.41901 95.5044ZM62.5081 95.0751C58.9448 96.6833 54.965 97.127 51.135 96.3445L31.0111 90.6956C28.7461 90.0557 26.3217 90.3208 24.2497 91.4349L22.5229 92.3599L22.985 75.5622C28.4569 71.9228 35.4746 71.5488 41.3021 74.5851L42.5091 75.2106C44.6187 76.2998 46.9454 76.9005 49.3186 76.9694L61.181 77.2954C64.5128 77.3915 67.3425 79.7638 68.0185 83.0284L50.3493 82.5406C49.4435 82.5158 48.6898 83.2302 48.6642 84.1353C48.6394 85.0411 49.3538 85.7956 50.2588 85.8204L69.7581 86.357H69.8037C70.692 86.3562 71.4184 85.649 71.4424 84.7616C71.4624 84.0488 71.4096 83.3351 71.2838 82.6335L84.463 76.4064C84.4758 76.4007 84.4886 76.3943 84.5015 76.3879C86.3708 75.442 88.631 75.7584 90.1688 77.1816L62.5081 95.0751Z" fill="black"/>
<path d="M52.8099 17.223V1.64029C52.8099 0.734446 52.0754 0 51.1696 0C50.2637 0 49.5293 0.734446 49.5293 1.64029V17.223C49.5293 18.1289 50.2637 18.8633 51.1696 18.8633C52.0754 18.8633 52.8099 18.1289 52.8099 17.223Z" fill="black"/>
<path d="M65.1116 17.223V9.8417C65.1116 8.93586 64.3772 8.20142 63.4713 8.20142C62.5655 8.20142 61.8311 8.93586 61.8311 9.8417V17.223C61.8311 18.1288 62.5655 18.8633 63.4713 18.8633C64.3772 18.8633 65.1116 18.1288 65.1116 17.223Z" fill="black"/>
<path d="M40.5071 17.223V9.8417C40.5071 8.93586 39.7727 8.20142 38.8669 8.20142C37.961 8.20142 37.2266 8.93586 37.2266 9.8417V17.223C37.2266 18.1288 37.961 18.8633 38.8669 18.8633C39.7727 18.8633 40.5071 18.1288 40.5071 17.223Z" fill="black"/>
</svg>
