<svg viewBox="0 0 100 100" fill="none" xmlns="http://www.w3.org/2000/svg">
<g clip-path="url(#clip0)">
<path d="M32.6523 40.4661C32.2018 39.9972 31.534 39.8088 30.9056 39.9727C30.2763 40.1366 29.7855 40.6274 29.6216 41.2566C29.4577 41.885 29.6461 42.5528 30.1142 43.0033L57.1499 70.0391C57.6004 70.508 58.2682 70.6964 58.8975 70.5325C59.5259 70.3686 60.0167 69.877 60.1806 69.2486C60.3445 68.6202 60.1561 67.9515 59.688 67.5019L32.6523 40.4661Z" fill="black"/>
<path d="M23.4843 49.6323C23.0312 49.1748 22.3686 48.9943 21.7464 49.159C21.1241 49.3247 20.6377 49.8102 20.472 50.4325C20.3073 51.0547 20.4878 51.7182 20.9453 52.1704L47.9811 79.2062C48.4333 79.6646 49.0968 79.8451 49.719 79.6795C50.3413 79.5147 50.8277 79.0283 50.9925 78.406C51.1581 77.7838 50.9776 77.1212 50.5201 76.6681L23.4843 49.6323Z" fill="black"/>
<path d="M97.0818 0.532803L90.4674 7.14801C89.3894 6.49946 88.1607 6.14364 86.903 6.11559L52.4037 5.24093C49.6429 5.16468 46.9725 6.23128 45.0233 8.18832L3.10596 50.0846C2.98677 50.2038 2.83953 50.3511 2.68441 50.5334C-0.844057 54.4676 -0.651244 60.6578 3.10596 64.3335L35.8262 97.0537C37.7114 98.9415 40.2705 100.002 42.9375 100C45.6053 99.9984 48.1627 98.9353 50.0452 97.0449L91.9547 55.139C93.9074 53.1863 94.9757 50.5185 94.9118 47.7578L94.0362 13.2409C94.0003 11.9885 93.6436 10.7667 93.002 9.6905L99.6208 3.07179C100.078 2.61956 100.259 1.95611 100.093 1.33385C99.9284 0.711593 99.442 0.22518 98.8197 0.0604137C98.1974 -0.105229 97.5349 0.075313 97.0818 0.53368V0.532803ZM90.4482 13.3399L91.3228 47.8366C91.3666 49.614 90.6813 51.3318 89.4245 52.5903L47.5159 94.4989C46.302 95.7154 44.6544 96.3999 42.9357 96.4007C41.2171 96.4016 39.5685 95.7198 38.3529 94.5042L5.63005 61.7822C3.20851 59.3615 3.09545 55.4729 5.37063 52.9155C5.38641 52.8979 5.40218 52.8804 5.41708 52.862C5.47755 52.7893 5.55205 52.7157 5.64407 52.6228L47.5527 10.7378C48.8051 9.47227 50.5255 8.78166 52.3046 8.83074L86.8163 9.7054C87.1362 9.71329 87.4534 9.76412 87.7602 9.85439L76.1695 21.445C71.4649 18.0629 64.9522 18.8587 61.2003 23.2741C57.4483 27.6895 57.7148 34.2451 61.8111 38.3415C65.9084 42.4388 72.464 42.7043 76.8794 38.9524C81.2939 35.2013 82.0897 28.6886 78.7076 23.984L90.2948 12.396C90.385 12.7028 90.4368 13.02 90.4482 13.3399ZM77.2107 30.459C77.2107 34.6097 73.8453 37.9752 69.6945 37.9752C65.5429 37.9752 62.1784 34.6097 62.1784 30.459C62.1784 26.3083 65.5429 22.9428 69.6945 22.9428C73.8426 22.9481 77.2046 26.31 77.2098 30.459H77.2107Z" fill="black"/>
</g><defs><clipPath id="clip0"><rect width="100" height="100" fill="white"/></clipPath></defs>
</svg>
