<svg width="18" height="17" viewBox="0 0 18 17" fill="none" xmlns="http://www.w3.org/2000/svg">
<path d="M16.5721 1.66367C15.6403 0.590857 14.3617 0 12.9717 0C11.9327 0 10.9811 0.348712 10.1434 1.03637C9.7207 1.38348 9.33769 1.80814 9 2.3038C8.66245 1.80829 8.2793 1.38348 7.85646 1.03637C7.01889 0.348712 6.06734 0 5.02831 0C3.63826 0 2.35959 0.590857 1.42781 1.66367C0.507156 2.72395 0 4.17244 0 5.74252C0 7.35852 0.567307 8.83778 1.78528 10.3979C2.87485 11.7935 4.44081 13.2102 6.25424 14.8507C6.87346 15.411 7.57535 16.046 8.30415 16.7224C8.49669 16.9015 8.74374 17 9 17C9.25612 17 9.50331 16.9015 9.69557 16.7227C10.4244 16.0461 11.1267 15.4108 11.7462 14.8503C13.5593 13.2101 15.1253 11.7935 16.2149 10.3978C17.4328 8.83778 18 7.35852 18 5.74238C18 4.17244 17.4928 2.72395 16.5721 1.66367Z" fill="white"/>
</svg>
